HIERARCHY
ROOT Hips
{
	OFFSET -13.091600 -28.302996 44.698402
	CHANNELS 6 Xposition Yposition Zposition Zrotation Xrotation Yrotation
	JOINT Chest
	{
		OFFSET -0.673000 0.623899 5.369202
		CHANNELS 6 Xposition Yposition Zposition Zrotation Xrotation Yrotation
		JOINT Chest2
		{
			OFFSET 0.000000 0.000000 4.415001
			CHANNELS 6 Xposition Yposition Zposition Zrotation Xrotation Yrotation
			JOINT Neck
			{
				OFFSET 0.000000 0.000002 10.273300
				CHANNELS 6 Xposition Yposition Zposition Zrotation Xrotation Yrotation
				JOINT Head
				{
					OFFSET 0.000000 0.000000 2.173897
					CHANNELS 6 Xposition Yposition Zposition Zrotation Xrotation Yrotation
					End Site
					{
						OFFSET 0.000000 0.000000 9.961800
					}
				}
			}
			JOINT LeftCollar
			{
				OFFSET 2.359900 -0.565201 5.928101
				CHANNELS 6 Xposition Yposition Zposition Zrotation Xrotation Yrotation
				JOINT LeftShoulder
				{
					OFFSET 5.443700 0.000000 0.000000
					CHANNELS 6 Xposition Yposition Zposition Zrotation Xrotation Yrotation
					JOINT LeftElbow
					{
						OFFSET 0.000000 0.000000 -10.615799
						CHANNELS 6 Xposition Yposition Zposition Zrotation Xrotation Yrotation
						JOINT LeftWrist
						{
							OFFSET 0.000000 -0.000002 -13.110302
							CHANNELS 6 Xposition Yposition Zposition Zrotation Xrotation Yrotation
							End Site
							{
								OFFSET 0.000000 0.000000 -2.173901
							}
						}
					}
				}
			}
			JOINT RightCollar
			{
				OFFSET -2.636600 -1.718800 6.889698
				CHANNELS 6 Xposition Yposition Zposition Zrotation Xrotation Yrotation
				JOINT RightShoulder
				{
					OFFSET -4.139101 0.000000 0.000000
					CHANNELS 6 Xposition Yposition Zposition Zrotation Xrotation Yrotation
					JOINT RightElbow
					{
						OFFSET 0.000000 0.000000 -10.471802
						CHANNELS 6 Xposition Yposition Zposition Zrotation Xrotation Yrotation
						JOINT RightWrist
						{
							OFFSET 0.000000 0.000000 -12.281898
							CHANNELS 6 Xposition Yposition Zposition Zrotation Xrotation Yrotation
							End Site
							{
								OFFSET 0.000000 -0.000002 -2.173901
							}
						}
					}
				}
			}
		}
	}
	JOINT LeftHip
	{
		OFFSET 2.273400 0.176701 -2.518002
		CHANNELS 6 Xposition Yposition Zposition Zrotation Xrotation Yrotation
		JOINT LeftKnee
		{
			OFFSET 0.000000 -0.000002 -20.456402
			CHANNELS 6 Xposition Yposition Zposition Zrotation Xrotation Yrotation
			JOINT LeftAnkle
			{
				OFFSET 0.000000 -0.000002 -16.635300
				CHANNELS 6 Xposition Yposition Zposition Zrotation Xrotation Yrotation
				End Site
				{
					OFFSET 0.000000 -8.812399 0.000001
				}
			}
		}
	}
	JOINT RightHip
	{
		OFFSET -1.914800 0.018101 -2.699299
		CHANNELS 6 Xposition Yposition Zposition Zrotation Xrotation Yrotation
		JOINT RightKnee
		{
			OFFSET 0.000000 -0.000002 -20.148901
			CHANNELS 6 Xposition Yposition Zposition Zrotation Xrotation Yrotation
			JOINT RightAnkle
			{
				OFFSET 0.000000 -0.000002 -16.838301
				CHANNELS 6 Xposition Yposition Zposition Zrotation Xrotation Yrotation
				End Site
				{
					OFFSET 0.000000 -8.328398 0.000001
				}
			}
		}
	}
}
MOTION
Frames: 4
Frame Time: 0.041667
-20.202902 3.284010 39.326202 3420.510433 -15.097780 12.800536 -0.673000 0.623901 5.369205 -4.346061 -12.322487 -1.579888 0.000003 0.000002 4.415005 1.264896 -0.241993 -0.069673 0.000002 0.000009 10.273295 -31.686183 -46.387035 -17.723513 0.000003 -0.000007 2.173902 -4.356983 -13.476720 -4.950319 2.359902 -0.565200 5.928098 3.407564 0.929723 -19.316224 5.443701 0.000003 -0.000005 -48.566975 332.469539 -124.898410 0.000002 0.000001 -10.615794 643.940399 -113.572864 260.906560 -0.000001 -0.000001 -13.110303 -2059.609994 172.772490 -573.259908 -2.636598 -1.718803 6.889700 187.830052 -191.559171 192.910606 -4.139104 -0.000002 0.000002 -106.356386 -134.997815 341.700185 0.000002 -0.000005 -10.471802 24.459111 -6.188579 -359.049521 0.000002 0.000001 -12.281900 34.645697 15.161966 56.372075 2.273398 0.176704 -2.518005 -510.866403 -159.237828 -179.879015 0.000006 -0.000005 -20.456398 763.393414 158.199052 -88.662972 -0.000002 -0.000006 -16.635300 -282.937363 -14.790589 34.814372 -1.914800 0.018101 -2.699295 260.368478 143.669614 165.082148 0.000001 -0.000005 -20.148899 -928.500615 -192.885485 159.204319 -0.000002 -0.000003 -16.838303 1059.093723 65.970297 -35.865675
-20.219002 3.282806 39.326397 3420.438962 -15.092230 12.720640 -0.673004 0.623900 5.369207 -4.249745 -12.293506 -1.563189 0.000003 -0.000003 4.415003 1.251252 -0.271201 -0.070394 -0.000003 -0.000006 10.273300 -31.817729 -46.397168 -17.860463 0.000000 -0.000000 2.173899 -4.181546 -13.503448 -5.069759 2.359899 -0.565207 5.928102 3.238058 1.116006 -19.157782 5.443704 0.000003 -0.000009 -48.293819 332.456944 -124.712916 -0.000004 0.000008 -10.615795 645.149179 -113.155812 262.494798 -0.000002 0.000005 -13.110295 -2059.468801 172.635763 -573.171006 -2.636603 -1.718806 6.889703 189.027439 -191.153212 192.635541 -4.139105 -0.000001 -0.000005 -108.993830 -135.307577 340.343491 0.000002 -0.000006 -10.471793 24.837507 -6.207610 -358.901606 0.000003 -0.000001 -12.281893 33.736900 15.156115 56.220486 2.273394 0.176701 -2.518008 -510.480907 -159.199415 -179.702140 0.000004 -0.000005 -20.456400 763.146161 158.228067 -88.615537 -0.000004 -0.000008 -16.635300 -282.965967 -14.816796 34.804195 -1.914798 0.018099 -2.699300 258.818762 143.487070 166.011245 0.000000 -0.000005 -20.148899 -927.998569 -193.342902 159.640905 -0.000001 -0.000005 -16.838299 1059.654454 66.185257 -35.154424
-20.237305 3.281105 39.326202 3420.360060 -15.096414 12.622399 -0.672999 0.623898 5.369206 -4.133737 -12.230062 -1.530235 0.000004 0.000001 4.415006 1.282314 -0.317363 -0.066312 -0.000002 -0.000005 10.273302 -31.623195 -46.478256 -17.878713 -0.000001 -0.000006 2.173897 -4.163803 -13.494735 -5.136850 2.359899 -0.565204 5.928107 3.219690 1.211761 -18.892756 5.443699 0.000001 0.000002 -48.320843 332.523744 -124.609357 -0.000000 0.000001 -10.615799 645.992953 -113.131224 263.791413 -0.000001 -0.000005 -13.110296 -2059.856537 172.636706 -573.086858 -2.636600 -1.718803 6.889705 189.224804 -191.515089 192.312555 -4.139093 0.000001 0.000003 -109.670756 -135.488728 340.542167 0.000005 -0.000006 -10.471799 24.172939 -6.256536 -359.023894 0.000000 -0.000003 -12.281908 33.860058 15.174356 56.204869 2.273395 0.176699 -2.517998 -510.526205 -159.254166 -179.638183 0.000001 -0.000005 -20.456396 763.302709 158.022437 -88.597806 -0.000002 -0.000005 -16.635302 -283.112352 -14.815109 34.768699 -1.914798 0.018094 -2.699293 258.889824 143.446608 165.960619 -0.000001 0.000001 -20.148903 -927.850599 -193.264492 159.786907 0.000000 -0.000000 -16.838305 1059.610413 66.163728 -35.474107
-20.261402 3.278706 39.326202 3420.282032 -15.076060 12.498804 -0.672998 0.623902 5.369195 -4.016385 -12.179601 -1.474513 0.000002 -0.000002 4.415003 1.428074 -0.405255 -0.041212 0.000001 -0.000002 10.273298 -31.580134 -46.472464 -17.954974 0.000004 -0.000003 2.173899 -4.175134 -13.492520 -5.141761 2.359900 -0.565203 5.928102 2.917066 1.732946 -18.534236 5.443697 -0.000003 0.000000 -48.247367 332.439650 -124.846910 -0.000001 -0.000003 -10.615789 646.674606 -113.178823 264.875446 0.000000 -0.000002 -13.110304 -2060.221324 172.622649 -573.008284 -2.636601 -1.718804 6.889701 189.032630 -191.476048 191.793570 -4.139105 0.000000 0.000002 -109.609762 -135.962155 340.667624 -0.000001 -0.000007 -10.471789 24.363165 -6.128082 -359.034385 0.000002 -0.000002 -12.281900 33.570042 15.299211 56.193213 2.273403 0.176702 -2.518011 -510.448669 -159.291677 -179.503450 -0.000001 -0.000007 -20.456398 763.347297 157.981524 -88.589910 -0.000001 -0.000007 -16.635300 -283.143880 -14.816552 34.784002 -1.914792 0.018100 -2.699305 259.095658 143.353144 165.899626 -0.000001 -0.000001 -20.148897 -927.845463 -193.129596 159.790500 0.000001 -0.000003 -16.838303 1059.148255 66.109401 -35.369318
